<svg width="30" height="30" viewBox="0 0 30 30" fill="none" xmlns="http://www.w3.org/2000/svg">
<path d="M17.9091 18.75C17.9091 19.164 17.5825 19.5 17.1818 19.5C16.7811 19.5 16.4545 19.164 16.4545 18.75C16.4545 18.336 16.7811 18 17.1818 18C17.5825 18 17.9091 18.336 17.9091 18.75ZM19.3636 18.75C19.3636 17.5072 18.3869 16.5 17.1818 16.5C15.9767 16.5 15 17.5072 15 18.75C15 19.9927 15.9767 21 17.1818 21C18.3869 21 19.3636 19.9928 19.3636 18.75ZM15 11.25C15 10.0072 14.0233 9 12.8182 9C11.6131 9 10.6364 10.0072 10.6364 11.25C10.6364 12.4927 11.6131 13.5 12.8182 13.5C14.0233 13.5 15 12.4927 15 11.25ZM20.8182 18.75C20.8182 19.0072 20.7927 19.2577 20.7447 19.5L22.2727 19.5C22.6742 19.5 23 19.1648 23 18.75C23 18.3352 22.6742 18 22.2727 18L20.7447 18C20.7927 18.2423 20.8182 18.4928 20.8182 18.75ZM16.4545 11.25C16.4545 11.5072 16.4291 11.7577 16.3811 12L22.2727 12C22.6742 12 23 11.6648 23 11.25C23 10.8353 22.6742 10.5 22.2727 10.5L16.3811 10.5C16.4291 10.7422 16.4545 10.9927 16.4545 11.25ZM13.5455 18.75C13.5455 18.4927 13.5709 18.2423 13.6189 18L7.72727 18C7.32582 18 7 18.3352 7 18.75C7 19.1647 7.32582 19.5 7.72727 19.5L13.6189 19.5C13.5709 19.2577 13.5455 19.0072 13.5455 18.75ZM9.18182 11.25C9.18182 10.9927 9.20727 10.7422 9.25527 10.5L7.72727 10.5C7.32582 10.5 7 10.8352 7 11.25C7 11.6647 7.32582 12 7.72727 12L9.25527 12C9.20727 11.7577 9.18182 11.5072 9.18182 11.25Z" fill="black"/>
</svg>
